<?xml version="1.0" standalone="no"?>
<!DOCTYPE svg PUBLIC "-//W3C//DTD SVG 20010904//EN"
 "http://www.w3.org/TR/2001/REC-SVG-20010904/DTD/svg10.dtd">
<svg version="1.0" xmlns="http://www.w3.org/2000/svg"
 width="321.000000pt" height="321.000000pt" viewBox="0 0 321.000000 321.000000"
 preserveAspectRatio="xMidYMid meet">
<metadata>
Created by potrace 1.11, written by Peter Selinger 2001-2013
</metadata>
<g transform="translate(0.000000,321.000000) scale(0.100000,-0.100000)"
fill="#000000" stroke="none">
<path d="M1405 3103 c-215 -27 -471 -121 -645 -239 -452 -304 -713 -853 -660
-1389 35 -353 170 -644 415 -891 271 -274 579 -423 942 -454 504 -44 987 164
1309 563 392 487 428 1188 87 1725 -282 444 -746 696 -1271 691 -81 -1 -160
-4 -177 -6z m510 -317 c205 -55 375 -155 530 -312 207 -207 311 -415 344 -684
71 -568 -235 -1093 -755 -1294 -318 -123 -676 -107 -979 43 -247 123 -430 303
-547 536 -160 319 -170 742 -24 1051 139 295 407 537 699 633 154 51 228 61
437 57 174 -3 206 -6 295 -30z"/>
<path d="M1180 2380 l0 -129 111 -3 111 -3 34 -84 c19 -47 34 -94 34 -106 0
-12 -135 -246 -301 -520 -165 -275 -309 -516 -320 -537 -35 -69 -38 -68 146
-68 l164 0 59 88 c32 48 103 157 156 242 147 232 240 369 251 370 10 0 198
-476 265 -670 16 -47 34 -86 39 -88 25 -8 400 103 474 140 30 15 37 23 31 36
-4 9 -23 64 -43 122 -42 122 -32 118 -164 71 -49 -17 -94 -31 -101 -31 -7 0
-18 19 -25 43 -18 59 -107 295 -254 672 -69 176 -146 380 -173 453 l-47 132
-224 0 -223 0 0 -130z"/>
</g>
</svg>
